<svg width="80" height="80" viewBox="0 0 80 80" fill="none" xmlns="http://www.w3.org/2000/svg">
<path d="M21.093 19.0033C18.8093 20.5175 15.9654 22.4005 16.2101 25.8437C16.2385 26.2515 16.5789 26.5706 16.9902 26.5706H24.9724C25.405 26.5706 25.7525 26.2196 25.7525 25.7905C25.7525 25.3614 25.4015 25.0103 24.9724 25.0103H17.7845C18.0292 22.9075 20.0256 21.5884 21.9582 20.3047C23.8377 19.06 25.6107 17.8863 25.7454 15.9998C25.7915 15.3828 25.5504 14.358 24.7242 13.5069C24.1178 12.8828 22.9937 12.1524 21.0682 12.2339C17.5576 12.3793 16.6179 14.5566 16.5789 14.6488C16.4158 15.0459 16.6037 15.5034 17.0009 15.67C17.4016 15.8367 17.8555 15.6452 18.0221 15.2481C18.0292 15.2339 18.6462 13.9005 21.132 13.7977C22.1958 13.7516 23.054 14.0317 23.6036 14.5991C24.0611 15.0707 24.2064 15.6417 24.1887 15.8899C24.1071 17.0104 22.6462 17.9785 21.0966 19.0069L21.093 19.0033Z" fill="#1F473E"/>
<path d="M28.7732 22.5291H35.766V25.99C35.766 26.4227 36.1171 26.7702 36.5461 26.7702C36.9752 26.7702 37.3263 26.4191 37.3263 25.99V15.9051C37.3263 15.4725 36.9752 15.1249 36.5461 15.1249C36.1171 15.1249 35.766 15.476 35.766 15.9051V20.9689H29.9682L33.4114 13.1285C33.5852 12.7349 33.4043 12.2739 33.0107 12.1002C32.6171 11.9264 32.1561 12.1073 31.9824 12.5009L28.0569 21.4369C27.9505 21.678 27.9753 21.9582 28.1172 22.178C28.2625 22.3979 28.5072 22.5326 28.7696 22.5326L28.7732 22.5291Z" fill="#1F473E"/>
<path d="M41.6029 31.1422C41.6951 31.1776 41.7909 31.1954 41.8866 31.1954C42.1987 31.1954 42.493 31.0074 42.6136 30.6989L51.2234 8.66371C51.3794 8.26301 51.1808 7.80912 50.7801 7.65309C50.3794 7.49707 49.9255 7.69565 49.7695 8.09635L41.1597 30.1315C41.0037 30.5322 41.2022 30.9861 41.6029 31.1422Z" fill="#1F473E"/>
<path d="M54.5848 13.5934H62.2195C62.0386 16.2032 60.9429 17.3451 59.6911 18.65C58.2372 20.1642 56.5883 21.884 56.4571 25.9655C56.4429 26.3982 56.7798 26.7563 57.2124 26.7705C57.2195 26.7705 57.2302 26.7705 57.2373 26.7705C57.6557 26.7705 58.0032 26.4372 58.0174 26.0152C58.1309 22.533 59.4358 21.1712 60.8188 19.7315C62.2869 18.1997 63.8081 16.6182 63.8081 12.8132C63.8081 12.3806 63.457 12.0331 63.028 12.0331H54.5848C54.1522 12.0331 53.8047 12.3842 53.8047 12.8132C53.8047 13.2423 54.1558 13.5934 54.5848 13.5934Z" fill="#1F473E"/>
<path d="M69.6664 34.8546H10.3338C9.90123 34.8546 9.55371 35.2057 9.55371 35.6348V71.6201C9.55371 72.0527 9.90477 72.4002 10.3338 72.4002H69.6664C70.099 72.4002 70.4465 72.0492 70.4465 71.6201V35.6348C70.4465 35.2022 70.0955 34.8546 69.6664 34.8546ZM39.22 70.8364H22.0997V45.0744H39.22V70.8364ZM40.7803 70.8364V45.0744H57.9006V70.8364H40.7803ZM68.8863 70.8364H59.4644V44.2942C59.4644 43.8616 59.1134 43.5141 58.6843 43.5141H21.3231C20.8904 43.5141 20.5429 43.8651 20.5429 44.2942V70.8364H11.1211V36.4149H68.8898V70.8364H68.8863Z" fill="#1F473E"/>
<path d="M27.1173 57.8408C27.2805 57.8408 27.4471 57.7911 27.5854 57.6847L34.6704 52.3337C35.0144 52.0749 35.0818 51.5855 34.8229 51.2416C34.5641 50.8976 34.0747 50.8302 33.7307 51.0891L26.6457 56.44C26.3018 56.6989 26.2344 57.1883 26.4932 57.5323C26.6457 57.7344 26.8798 57.8408 27.1173 57.8408Z" fill="#1F473E"/>
<path d="M27.1173 64.9855C27.2805 64.9855 27.4471 64.9359 27.5854 64.8295L34.6704 59.4785C35.0144 59.2197 35.0818 58.7303 34.8229 58.3863C34.5641 58.0423 34.0747 57.975 33.7307 58.2338L26.6457 63.5848C26.3018 63.8437 26.2344 64.333 26.4932 64.677C26.6457 64.8791 26.8798 64.9855 27.1173 64.9855Z" fill="#1F473E"/>
<path d="M52.4143 51.0852L45.3293 56.4361C44.9853 56.695 44.918 57.1844 45.1768 57.5283C45.3293 57.7305 45.5634 57.8369 45.8009 57.8369C45.9641 57.8369 46.1307 57.7872 46.269 57.6808L53.354 52.3298C53.698 52.071 53.7654 51.5816 53.5065 51.2376C53.2477 50.8937 52.7583 50.8263 52.4143 51.0852Z" fill="#1F473E"/>
<path d="M52.4143 58.2306L45.3293 63.5815C44.9853 63.8404 44.918 64.3298 45.1768 64.6737C45.3293 64.8759 45.5634 64.9823 45.8009 64.9823C45.9641 64.9823 46.1307 64.9326 46.269 64.8262L53.354 59.4752C53.698 59.2164 53.7654 58.727 53.5065 58.383C53.2477 58.039 52.7583 57.9717 52.4143 58.2306Z" fill="#1F473E"/>
</svg>
