<svg width="80" height="80" viewBox="0 0 80 80" fill="none" xmlns="http://www.w3.org/2000/svg">
<path d="M69.6664 16.112C70.099 16.112 70.4466 15.7609 70.4466 15.3318V10.3355C70.4466 9.90284 70.0955 9.5553 69.6664 9.5553H10.3338C9.90123 9.5553 9.55371 9.90638 9.55371 10.3355V15.3318C9.55371 15.7645 9.90477 16.112 10.3338 16.112H11.114V43.4592H10.3338C9.90123 43.4592 9.55371 43.8102 9.55371 44.2393V49.2356C9.55371 49.6683 9.90477 50.0158 10.3338 50.0158H28.1067L22.0819 68.8843H20.8053C20.3727 68.8843 20.0252 69.2354 20.0252 69.6645C20.0252 70.0935 20.3763 70.4446 20.8053 70.4446H24.6067C25.0393 70.4446 25.3868 70.0935 25.3868 69.6645C25.3868 69.2354 25.0358 68.8843 24.6067 68.8843H23.7202L29.7449 50.0158H50.2482L56.273 68.8843H55.39C54.9574 68.8843 54.6099 69.2354 54.6099 69.6645C54.6099 70.0935 54.9609 70.4446 55.39 70.4446H59.1914C59.624 70.4446 59.9715 70.0935 59.9715 69.6645C59.9715 69.2354 59.6205 68.8843 59.1914 68.8843H57.9148L51.89 50.0158H69.6628C70.0955 50.0158 70.443 49.6647 70.443 49.2356V44.2393C70.443 43.8067 70.0919 43.4592 69.6628 43.4592H68.8827V16.112H69.6628H69.6664ZM11.114 11.1156H68.8827V14.5517H11.114V11.1156ZM68.8827 48.4555H11.114V45.0194H68.8827V48.4555ZM67.3225 43.4592H12.6742V16.112H67.3225V43.4592Z" fill="#1F473E"/>
<path d="M41.404 63.2882H40.7799V54.2316C40.7799 53.799 40.4289 53.4514 39.9998 53.4514C39.5707 53.4514 39.2197 53.8025 39.2197 54.2316V63.2882H38.5956C38.1629 63.2882 37.8154 63.6393 37.8154 64.0683C37.8154 64.4974 38.1665 64.8484 38.5956 64.8484H41.4076C41.8402 64.8484 42.1877 64.4974 42.1877 64.0683C42.1877 63.6393 41.8367 63.2882 41.4076 63.2882H41.404Z" fill="#1F473E"/>
<path d="M52.8338 24.3208H59.3302C59.7628 24.3208 60.1103 23.9698 60.1103 23.5407C60.1103 23.1117 59.7593 22.7606 59.3302 22.7606H52.8338C52.4012 22.7606 52.0537 23.1117 52.0537 23.5407C52.0537 23.9698 52.4048 24.3208 52.8338 24.3208Z" fill="#1F473E"/>
<path d="M52.8338 30.5657H59.3302C59.7628 30.5657 60.1103 30.2147 60.1103 29.7856C60.1103 29.3565 59.7593 29.0055 59.3302 29.0055H52.8338C52.4012 29.0055 52.0537 29.3565 52.0537 29.7856C52.0537 30.2147 52.4048 30.5657 52.8338 30.5657Z" fill="#1F473E"/>
<path d="M52.8338 36.8103H59.3302C59.7628 36.8103 60.1103 36.4592 60.1103 36.0301C60.1103 35.601 59.7593 35.25 59.3302 35.25H52.8338C52.4012 35.25 52.0537 35.601 52.0537 36.0301C52.0537 36.4592 52.4048 36.8103 52.8338 36.8103Z" fill="#1F473E"/>
<path d="M19.9121 36.6858C20.0433 36.771 20.1923 36.8135 20.3377 36.8135C20.593 36.8135 20.8412 36.6894 20.9937 36.4589L24.8269 30.5689H27.4581C27.7205 30.5689 27.9688 30.4342 28.1141 30.2143L31.9474 24.3243H34.1566L37.9899 30.2143C38.1353 30.4342 38.38 30.5689 38.6459 30.5689H41.731C41.9934 30.5689 42.2416 30.4342 42.387 30.2143L45.2061 25.881C45.348 26.0477 45.5607 26.1576 45.7948 26.1576C46.2274 26.1576 46.5749 25.8066 46.5749 25.3775V23.5442C46.5749 23.2889 46.4508 23.0407 46.2203 22.8917C45.9934 22.7428 45.7168 22.7286 45.4827 22.8314C45.4827 22.8314 45.4827 22.8314 45.4792 22.8314L43.7842 23.5761C43.3905 23.7499 43.2097 24.2109 43.3835 24.6045C43.4827 24.8279 43.6707 24.9803 43.8905 25.0406L41.309 29.0087H39.0714L35.2382 23.1186C35.0928 22.8988 34.8481 22.764 34.5821 22.764H31.5254C31.263 22.764 31.0148 22.8988 30.8694 23.1186L27.0361 29.0087H24.405C24.1426 29.0087 23.8943 29.1434 23.749 29.3633L19.6852 35.6079C19.4511 35.9696 19.554 36.4518 19.9121 36.6894V36.6858Z" fill="#1F473E"/>
<path d="M29.177 35.25H26.287C25.8544 35.25 25.5068 35.601 25.5068 36.0301C25.5068 36.4592 25.8579 36.8103 26.287 36.8103H29.177C29.6096 36.8103 29.9571 36.4592 29.9571 36.0301C29.9571 35.601 29.6061 35.25 29.177 35.25Z" fill="#1F473E"/>
<path d="M36.6497 35.25H33.7596C33.327 35.25 32.9795 35.601 32.9795 36.0301C32.9795 36.4592 33.3306 36.8103 33.7596 36.8103H36.6497C37.0823 36.8103 37.4298 36.4592 37.4298 36.0301C37.4298 35.601 37.0787 35.25 36.6497 35.25Z" fill="#1F473E"/>
<path d="M44.1204 35.25H41.2303C40.7977 35.25 40.4502 35.601 40.4502 36.0301C40.4502 36.4592 40.8013 36.8103 41.2303 36.8103H44.1204C44.553 36.8103 44.9005 36.4592 44.9005 36.0301C44.9005 35.601 44.5494 35.25 44.1204 35.25Z" fill="#1F473E"/>
</svg>
