<svg width="81" height="80" viewBox="0 0 81 80" fill="none" xmlns="http://www.w3.org/2000/svg">
<path d="M78.1105 37.6784C76.3962 35.7884 73.8398 34.6556 71.2653 34.6556C68.9997 34.6556 66.8855 35.5037 65.2802 36.9696C65.5225 34.9827 65.6558 32.9109 65.6558 30.7423C65.6558 30.3 65.2983 29.9426 64.8561 29.9426H6.36827C5.92605 29.9426 5.5686 30.3 5.5686 30.7423C5.5686 48.7157 14.8249 60.6313 18.3626 64.5325H1.80068C1.56442 64.5325 1.33422 64.6416 1.18277 64.8233C1.03133 65.005 0.970805 65.2474 1.01321 65.4836C1.03138 65.5684 2.82442 74.231 13.365 74.231H57.8594C68.406 74.231 70.1991 65.5684 70.2112 65.4836C70.2536 65.2474 70.193 65.005 70.0416 64.8233C69.8901 64.6416 69.6599 64.5325 69.4237 64.5325H52.8617C53.7583 63.5451 55.0304 62.0368 56.4176 60.0437C58.4894 57.5843 62.3482 56.3788 66.4008 55.1006C72.501 53.1742 79.4129 50.9873 80.1459 43.6211C80.3579 41.4706 79.6371 39.3625 78.1105 37.6784ZM57.8655 72.6318H13.371C6.08957 72.6318 3.61802 68.149 2.87292 66.1318H68.3514C67.5882 68.143 65.0742 72.6318 57.8655 72.6318ZM20.5798 64.5325C19.2653 63.2422 12.1716 55.8457 8.86407 43.5847L11.8385 45.1537C11.9536 45.2143 12.0868 45.2446 12.214 45.2446C12.3413 45.2446 12.4685 45.2143 12.5896 45.1537L16.4787 43.1001L20.3678 45.1537C20.604 45.2749 20.8827 45.2749 21.1129 45.1537L25.002 43.1001L28.891 45.1537C29.1273 45.2749 29.406 45.2749 29.6362 45.1537L33.5253 43.1001L37.4205 45.1537C37.6567 45.2749 37.9353 45.2749 38.1655 45.1537L42.4302 42.9002C42.824 42.6942 42.9693 42.2096 42.7634 41.8159C42.5574 41.4221 42.0728 41.2767 41.679 41.4827L37.7839 43.5363L33.8887 41.4827C33.6525 41.3615 33.3738 41.3615 33.1436 41.4827L29.2546 43.5363L25.3655 41.4827C25.1292 41.3615 24.8506 41.3615 24.6204 41.4827L20.7312 43.5363L16.8421 41.4827C16.6059 41.3615 16.3272 41.3615 16.097 41.4827L12.208 43.5363L8.35524 41.5008C7.67676 38.4477 7.23451 35.1281 7.17999 31.5479H64.0504C63.7415 50.9752 52.3529 62.8666 50.6506 64.5325H20.5798ZM78.5528 43.4636C77.9288 49.7819 72.0951 51.6234 65.9223 53.574C63.4567 54.3555 60.9488 55.149 58.8165 56.2758C61.1972 52.1383 63.5416 46.753 64.7713 40.2469C66.0253 37.7875 68.5029 36.267 71.2653 36.267C73.3915 36.267 75.5057 37.1998 76.9232 38.7628C78.1408 40.1076 78.7163 41.7795 78.5528 43.4696V43.4636Z" fill="#1F473E"/>
<path d="M22.0938 22.0186C21.8333 22.376 21.9121 22.8788 22.2695 23.1393C22.4088 23.2423 22.5784 23.2907 22.7359 23.2907C22.9843 23.2907 23.2266 23.1756 23.3841 22.9576C23.5113 22.7819 26.4675 18.602 23.4144 13.7195C20.9489 9.77584 23.2811 6.41378 23.3841 6.26839C23.6446 5.91098 23.5597 5.41423 23.2023 5.15374C22.8449 4.89326 22.3421 4.97203 22.0817 5.32944C21.9544 5.50512 18.9983 9.68499 22.0514 14.5676C24.5169 18.5112 22.1786 21.8793 22.0817 22.0126L22.0938 22.0186Z" fill="#1F473E"/>
<path d="M34.0938 22.0186C33.8333 22.376 33.912 22.8788 34.2695 23.1393C34.4088 23.2423 34.5784 23.2907 34.7359 23.2907C34.9843 23.2907 35.2266 23.1756 35.3841 22.9576C35.5114 22.7819 38.4675 18.602 35.4144 13.7195C32.9489 9.77584 35.2812 6.41378 35.3841 6.26839C35.6446 5.91098 35.5598 5.41423 35.2024 5.15374C34.845 4.89326 34.3422 4.97203 34.0817 5.32944C33.9545 5.50512 30.9983 9.68499 34.0514 14.5676C36.5169 18.5112 34.1786 21.8793 34.0817 22.0126L34.0938 22.0186Z" fill="#1F473E"/>
<path d="M46.1016 22.0186C45.8411 22.376 45.9199 22.8788 46.2773 23.1393C46.4166 23.2423 46.5862 23.2907 46.7438 23.2907C46.9921 23.2907 47.2344 23.1756 47.3919 22.9576C47.5191 22.7819 50.4753 18.602 47.4222 13.7195C44.9567 9.77584 47.2889 6.41378 47.3919 6.26839C47.6524 5.91098 47.5675 5.41423 47.2101 5.15374C46.8527 4.89326 46.3499 4.97203 46.0895 5.32944C45.9622 5.50512 43.0061 9.68499 46.0592 14.5676C48.5247 18.5112 46.1864 21.8793 46.0895 22.0126L46.1016 22.0186Z" fill="#1F473E"/>
</svg>
