<svg width="80" height="80" viewBox="0 0 80 80" fill="none" xmlns="http://www.w3.org/2000/svg">
<path d="M55.5957 47.195C54.8404 45.5389 53.1773 44.4681 51.3547 44.4681H43.4008C41.3087 44.4681 40.2023 42.8404 40.1917 41.2305C40.1881 40.688 40.1846 39.0461 40.1846 37.1135C40.6846 37.3724 41.2484 37.5143 41.8406 37.5143H52.2837C54.2766 37.5143 55.8971 35.8937 55.8971 33.9008C55.8971 31.9079 54.2766 30.2874 52.2837 30.2874H44.2945L41.5711 23.4364C44.2306 21.9364 46.032 19.0889 46.032 15.8266C46.032 11.011 42.1136 7.09619 37.3016 7.09619C32.4896 7.09619 28.5712 11.0146 28.5712 15.8266C28.5712 17.5677 29.0854 19.1918 29.9684 20.557C20.4011 32.9682 22.5926 42.0815 24.777 46.4361C27.3124 51.4963 31.8478 54.4644 34.8123 54.4644C34.8513 54.4644 34.8903 54.4644 34.9293 54.4644H47.7909L53.8333 67.0564C54.5887 68.7124 56.2553 69.7869 58.0744 69.7869C58.7411 69.7869 59.3935 69.645 60.0034 69.3684C61.1346 68.8507 61.9999 67.9252 62.4361 66.7621C62.8722 65.5954 62.8297 64.3295 62.3226 63.2196L55.5993 47.202L55.5957 47.195ZM37.2981 8.65291C41.2519 8.65291 44.4682 11.8692 44.4682 15.823C44.4682 19.7769 41.2519 22.9931 37.2981 22.9931C33.3442 22.9931 30.128 19.7769 30.128 15.823C30.128 11.8692 33.3442 8.65291 37.2981 8.65291ZM59.351 67.9394C58.9432 68.1238 58.5141 68.2195 58.0709 68.2195C56.8581 68.2195 55.7518 67.5067 55.2411 66.3897L48.9788 53.3403C48.8476 53.0708 48.5745 52.897 48.2767 52.897H34.9045C34.8797 52.897 34.8548 52.897 34.8336 52.897C32.6847 52.897 28.5358 50.4396 26.1741 45.7304C24.1741 41.7411 22.2025 33.3902 30.9684 21.8194C32.5606 23.5002 34.8123 24.5499 37.3016 24.5499C38.2981 24.5499 39.2555 24.3797 40.1491 24.0711L43.0427 31.3512C43.1597 31.6491 43.4469 31.8441 43.7696 31.8441H52.2908C53.422 31.8441 54.344 32.7661 54.344 33.8973C54.344 35.0284 53.422 35.9504 52.2908 35.9504H41.8477C41.0002 35.9504 40.2519 35.4433 39.9399 34.6561L37.7201 29.0711C37.5605 28.6704 37.1066 28.4753 36.7059 28.6349C36.3052 28.7945 36.1102 29.2484 36.2697 29.6491L38.4896 35.2341C38.5321 35.337 38.5782 35.4398 38.6278 35.5391C38.6278 38.1135 38.6279 40.5532 38.6349 41.2412C38.6562 43.9716 40.7094 46.0283 43.4079 46.0283H51.3617C52.5709 46.0283 53.6809 46.7411 54.1702 47.8191L60.8935 63.8366C61.6027 65.3898 60.9148 67.2302 59.3581 67.9394H59.351Z" fill="#1F473E"/>
<path d="M69.836 17.4115C69.4034 17.4115 69.0559 17.7626 69.0559 18.1917V40.0282H49.2157C48.7831 40.0282 48.4355 40.3793 48.4355 40.8084C48.4355 41.2374 48.7866 41.5885 49.2157 41.5885H69.0559V72.1236C69.0559 72.5562 69.4069 72.9037 69.836 72.9037C70.2651 72.9037 70.6161 72.5527 70.6161 72.1236V18.1952C70.6161 17.7625 70.2651 17.415 69.836 17.415V17.4115Z" fill="#1F473E"/>
<path d="M42.393 57.9613H24.1805L17.4749 36.6495C17.3721 36.3233 17.0706 36.1034 16.7302 36.1034H10.1629C9.73033 36.1034 9.38281 36.4545 9.38281 36.8836V72.1207C9.38281 72.5533 9.73388 72.9008 10.1629 72.9008H46.0525C46.4852 72.9008 46.8327 72.5498 46.8327 72.1207V62.8016C46.8327 61.2307 46.3788 60.0003 45.4852 59.1457C44.2512 57.9613 42.6164 57.9577 42.3966 57.9648L42.393 57.9613ZM45.2689 71.3405H10.9395V37.6637H16.1558L22.8614 58.9754C22.9642 59.3017 23.2656 59.5215 23.606 59.5215H42.432C42.432 59.5215 43.6058 59.4967 44.4143 60.2804C44.9816 60.8336 45.2724 61.6811 45.2724 62.8016V71.3405H45.2689Z" fill="#1F473E"/>
<path d="M58.1236 37.6632H61.9462C62.3044 37.6632 62.6199 37.4185 62.705 37.071L65.9355 23.9612C66.0384 23.5428 65.783 23.1208 65.3646 23.018C64.9461 22.9152 64.5242 23.1705 64.4178 23.5889L61.3327 36.1065H58.12C57.6874 36.1065 57.3398 36.4575 57.3398 36.8866C57.3398 37.3157 57.6909 37.6667 58.12 37.6667L58.1236 37.6632Z" fill="#1F473E"/>
</svg>
