<svg width="80" height="80" viewBox="0 0 80 80" fill="none" xmlns="http://www.w3.org/2000/svg">
<path d="M71.2333 38.0498H8.78016C8.34754 38.0498 8 38.4009 8 38.8299V44.305C8 44.4824 8.06028 44.6561 8.17375 44.7979L11.2872 48.6383V71.2373C11.2872 71.6699 11.6382 72.0175 12.0673 72.0175H67.9461C68.3787 72.0175 68.7262 71.6664 68.7262 71.2373V48.6383L71.8396 44.7979C71.9531 44.6596 72.0134 44.4859 72.0134 44.305V38.8299C72.0134 38.3973 71.6623 38.0498 71.2333 38.0498ZM70.4531 44.032L67.3397 47.8724C67.2262 48.0107 67.1659 48.1844 67.1659 48.3653V70.4607H12.8475V48.3653C12.8475 48.188 12.7872 48.0142 12.6737 47.8724L9.56027 44.032V39.6136H70.4531V44.032Z" fill="#1F473E"/>
<path d="M23.3231 34.3508C23.7557 34.3508 24.1032 33.9998 24.1032 33.5707V30.4963C24.1032 27.1169 26.3869 26.2304 28.5961 25.3758C28.5961 25.3758 32.0712 24.0212 34.2627 23.1701C35.7946 24.5247 37.8052 25.351 40.0037 25.351C42.2023 25.351 44.2129 24.5247 45.7448 23.1701C47.9363 24.0212 51.4114 25.3758 51.4114 25.3758C53.6206 26.2339 55.9042 27.1204 55.9042 30.4963V33.5707C55.9042 34.0033 56.2553 34.3508 56.6844 34.3508C57.1135 34.3508 57.4645 33.9998 57.4645 33.5707V30.4963C57.4645 26.0495 54.1596 24.7658 51.9752 23.9183C51.9752 23.9183 48.876 22.7092 46.8902 21.9397C48.0107 20.4787 48.6774 18.6525 48.6774 16.6738C48.6774 11.8901 44.7874 8.00012 40.0037 8.00012C35.2201 8.00012 31.3301 11.8901 31.3301 16.6738C31.3301 18.6525 31.9968 20.4751 33.1173 21.9397C31.1315 22.7092 28.0323 23.9183 28.0323 23.9183C25.8443 24.7658 22.543 26.0495 22.543 30.4963V33.5707C22.543 34.0033 22.894 34.3508 23.3231 34.3508ZM40.0073 9.56392C43.9292 9.56392 47.1207 12.7554 47.1207 16.6773C47.1207 20.5992 43.9292 23.7907 40.0073 23.7907C36.0853 23.7907 32.8939 20.5992 32.8939 16.6773C32.8939 12.7554 36.0853 9.56392 40.0073 9.56392Z" fill="#1F473E"/>
<path d="M39.2266 28.7482V33.5708C39.2266 34.0034 39.5776 34.3509 40.0067 34.3509C40.4357 34.3509 40.7868 33.9999 40.7868 33.5708V28.7482C40.7868 28.3155 40.4357 27.968 40.0067 27.968C39.5776 27.968 39.2266 28.3191 39.2266 28.7482Z" fill="#1F473E"/>
<path d="M45.7196 30.8265C45.2869 30.8265 44.9395 31.1776 44.9395 31.6067C44.9395 32.0357 45.2905 32.3868 45.7196 32.3868H49.3791C49.8117 32.3868 50.1592 32.0357 50.1592 31.6067C50.1592 31.1776 49.8082 30.8265 49.3791 30.8265H45.7196Z" fill="#1F473E"/>
<path d="M27.7547 61.6137H52.2544C52.6871 61.6137 53.0346 61.2626 53.0346 60.8335V51.5961C53.0346 51.1634 52.6835 50.8159 52.2544 50.8159H27.7547C27.3221 50.8159 26.9746 51.167 26.9746 51.5961V60.8335C26.9746 61.2661 27.3257 61.6137 27.7547 61.6137ZM28.5349 52.3762H51.4743V60.0498H28.5349V52.3762Z" fill="#1F473E"/>
</svg>
