<svg width="80" height="80" viewBox="0 0 80 80" fill="none" xmlns="http://www.w3.org/2000/svg">
<path d="M22.8945 36.294V43.4748C22.8945 43.9074 23.2456 44.2549 23.6747 44.2549C24.1037 44.2549 24.4548 43.9039 24.4548 43.4748V36.294C24.4548 35.8614 24.1037 35.5139 23.6747 35.5139C23.2456 35.5139 22.8945 35.865 22.8945 36.294Z" fill="#1F473E"/>
<path d="M66.1418 47.9605V42.0137C66.1418 36.6698 61.7943 32.3188 56.4469 32.3188C51.0994 32.3188 46.752 36.6663 46.752 42.0137V47.9605C44.44 47.9747 42.5605 49.8576 42.5605 52.1732V64.556C42.5605 66.8822 44.4506 68.7723 46.7768 68.7723H66.117C68.4432 68.7723 70.3332 66.8822 70.3332 64.556V52.1732C70.3332 49.8576 68.4538 47.9711 66.1418 47.9605ZM48.3122 42.0102C48.3122 37.5244 51.9611 33.8791 56.4469 33.8791C60.9327 33.8791 64.5815 37.528 64.5815 42.0102V47.9569H48.3158V42.0102H48.3122ZM68.7694 64.556C68.7694 66.0205 67.578 67.212 66.1134 67.212H46.7733C45.3087 67.212 44.1173 66.0205 44.1173 64.556V52.1732C44.1173 50.7087 45.3087 49.5172 46.7733 49.5172H66.1134C67.578 49.5172 68.7694 50.7087 68.7694 52.1732V64.556Z" fill="#1F473E"/>
<path d="M56.4452 56.0947C55.6687 56.0947 55.041 56.726 55.041 57.499C55.041 57.9848 55.2892 58.4138 55.6651 58.6656V61.0911C55.6651 61.5237 56.0162 61.8713 56.4452 61.8713C56.8743 61.8713 57.2254 61.5202 57.2254 61.0911V58.6656C57.6013 58.4138 57.8495 57.9848 57.8495 57.499C57.8495 56.7224 57.2183 56.0947 56.4452 56.0947Z" fill="#1F473E"/>
<path d="M61.7436 30.5323C62.1762 30.5323 62.5237 30.1812 62.5237 29.7522V18.0289C62.5237 17.5963 62.1726 17.2488 61.7436 17.2488H18.0243C17.5916 17.2488 17.2441 17.5998 17.2441 18.0289V61.7482C17.2441 62.1808 17.5952 62.5283 18.0243 62.5283H38.9673C39.3999 62.5283 39.7474 62.1773 39.7474 61.7482C39.7474 61.3191 39.3963 60.968 38.9673 60.968H18.8044V18.8126H60.9599V29.7557C60.9599 30.1883 61.3109 30.5358 61.74 30.5358L61.7436 30.5323Z" fill="#1F473E"/>
<path d="M39.7691 67.2085H12.5603V12.5602H67.2085V35.1309C67.2085 35.5635 67.5596 35.911 67.9886 35.911C68.4177 35.911 68.7688 35.5599 68.7688 35.1309V11.7801C68.7688 11.3475 68.4177 11 67.9886 11H11.7801C11.3475 11 11 11.351 11 11.7801V67.9886C11 68.4212 11.3511 68.7687 11.7801 68.7687H39.7691C40.2018 68.7687 40.5493 68.4177 40.5493 67.9886C40.5493 67.5595 40.1982 67.2085 39.7691 67.2085Z" fill="#1F473E"/>
</svg>
