<svg width="80" height="80" viewBox="0 0 80 80" fill="none" xmlns="http://www.w3.org/2000/svg">
<path fill-rule="evenodd" clip-rule="evenodd" d="M66.3855 18.9097V18.9151H57.3679C56.875 17.3655 56.0984 16.0215 55.0346 14.9009C52.8821 12.6279 50.063 11.7804 48.0524 11.4684C48.0985 11.1138 48.1268 10.7556 48.1268 10.3868C48.1268 5.9046 44.4815 2.25928 39.9993 2.25928C35.517 2.25928 31.8717 5.9046 31.8717 10.3868C31.8717 10.7521 31.9 11.1138 31.9461 11.4684C29.9355 11.7804 27.1129 12.6279 24.9639 14.9009C23.9037 16.0215 23.1236 17.3655 22.6307 18.9151H13.613V18.9097H12.0527V61.0864H13.613V61.0848H22.6307C23.1236 62.6345 23.9001 63.9785 24.9639 65.099C27.1129 67.372 29.9355 68.2195 31.9461 68.5316C31.9 68.8862 31.8717 69.2443 31.8717 69.6131C31.8717 74.0954 35.517 77.7407 39.9993 77.7407C44.4815 77.7407 48.1268 74.0954 48.1268 69.6131C48.1268 69.2479 48.0985 68.8862 48.0524 68.5316C50.063 68.2195 52.8857 67.372 55.0346 65.099C56.0949 63.9785 56.875 62.6345 57.3679 61.0848H66.3855V61.0864H67.9458V18.9097H66.3855ZM46.563 10.3868C46.563 6.76629 43.6163 3.81951 39.9957 3.81951C36.3752 3.81951 33.4284 6.76629 33.4284 10.3868C33.4284 14.0073 36.3752 16.9541 39.9957 16.9541C43.6163 16.9541 46.563 14.0073 46.563 10.3868ZM32.2972 12.9896C30.5206 13.2449 27.9888 13.9683 26.0916 15.9719H26.0881C24.2228 17.9435 23.3753 20.7697 23.5739 24.3725C23.7512 27.5569 23.8044 27.8512 24.0065 28.9469L24.0987 29.4611C24.5136 31.766 26.0703 31.766 26.5845 31.766C28.4285 31.766 28.6661 30.9646 28.9036 29.6632C29.1178 28.4821 29.3676 26.8439 29.4356 26.3974L29.4497 26.3051C29.5774 24.876 30.7299 22.2342 34.2369 22.3193H45.7687C49.251 22.259 50.4105 24.8796 50.5382 26.3051L50.5522 26.397C50.6202 26.8431 50.8701 28.4818 51.0843 29.6632C51.3219 30.9646 51.5594 31.766 53.4034 31.766C53.9211 31.7731 55.4743 31.7696 55.8892 29.4611L55.9814 28.9469L55.9846 28.9293C56.1841 27.8514 56.2412 27.5432 56.414 24.3725C56.6126 20.7697 55.7651 17.9435 53.8998 15.9719C52.0027 13.9683 49.4708 13.2449 47.6942 12.9896C46.6056 16.1988 43.5666 18.5144 39.9957 18.5144C36.4248 18.5144 33.3859 16.1988 32.2972 12.9896ZM22.0172 24.4541C21.9392 23.0215 22.0172 21.6917 22.2406 20.4718H22.237H13.6059V39.2163L13.613 40.7801V59.5246H22.2441C22.0207 58.3048 21.9427 56.975 22.0207 55.5424C22.2016 52.2587 22.2583 51.9431 22.4746 50.7694L22.5668 50.2623C22.9782 47.9786 24.4427 46.6701 26.5845 46.6701H26.5881C29.823 46.6737 30.2248 48.8674 30.4414 50.0498L30.4426 50.0566C30.6944 51.4538 31.0065 53.5211 31.0065 53.5389C31.0348 53.8048 31.3504 56.1735 34.2085 56.1168H45.7723C48.6623 56.17 48.9637 53.8048 48.9885 53.5353C48.9885 53.5211 49.2971 51.4538 49.5524 50.0566L49.5527 50.055C49.769 48.8702 50.1709 46.6701 53.4069 46.6701H53.4105C55.5559 46.6701 57.0168 47.9786 57.4282 50.2623L57.5204 50.7694C57.7367 51.9396 57.7934 52.2551 57.9743 55.5424C58.0523 56.975 57.9743 58.3048 57.7509 59.5246H57.7544H66.3855V40.7801L66.3784 39.2163V20.4718H57.7473C57.9707 21.6917 58.0487 23.0215 57.9707 24.4541C57.7899 27.7377 57.7331 28.0533 57.5168 29.227L57.4246 29.7341C57.0133 32.0178 55.5488 33.3263 53.4069 33.3263H53.4034C50.1685 33.3228 49.7667 31.1291 49.5501 29.9466L49.5488 29.9398C49.297 28.5427 48.985 26.4753 48.985 26.4576C48.9566 26.1916 48.6517 23.8158 45.7829 23.8796H34.2192C31.2635 23.8197 31.0167 26.3182 31.0031 26.4552L31.0029 26.4576C31.0029 26.4753 30.6944 28.5427 30.4391 29.9398L30.4388 29.9414C30.2224 31.1262 29.8206 33.3263 26.5845 33.3263H26.581C24.4356 33.3263 22.9746 32.0178 22.5633 29.7341L22.4711 29.227C22.2548 28.0568 22.198 27.7413 22.0172 24.4541ZM33.4284 69.6131C33.4284 73.2337 36.3752 76.1804 39.9957 76.1804C43.6163 76.1804 46.563 73.2337 46.563 69.6131C46.563 65.9926 43.6163 63.0458 39.9957 63.0458C36.3752 63.0458 33.4284 65.9926 33.4284 69.6131ZM47.6942 67.0103C49.4708 66.755 52.0027 66.0316 53.8998 64.0281V64.0316C55.7686 62.06 56.6161 59.2338 56.4175 55.631C56.2402 52.4431 56.1871 52.1488 55.9849 51.0531L55.8927 50.5389C55.4778 48.2339 53.9247 48.2339 53.4069 48.2339C51.563 48.2339 51.3254 49.0318 51.0878 50.3368C50.8737 51.5174 50.6241 53.1549 50.5559 53.6021L50.5417 53.6949C50.4141 55.1026 49.2864 57.6806 45.8964 57.6806H45.7545H34.2227H34.0809C30.705 57.6806 29.5774 55.1026 29.4497 53.6949L29.4356 53.6027C29.3675 53.1559 29.1178 51.5177 28.9036 50.3368C28.6661 49.0353 28.4285 48.2339 26.5845 48.2339H26.5597C26.0242 48.2339 24.5065 48.2658 24.0987 50.5389L24.0065 51.0531L24.0042 51.0657C23.804 52.1476 23.747 52.4555 23.5739 55.6275C23.3789 59.2303 24.2264 62.0565 26.0916 64.0281C27.9888 66.0316 30.5206 66.755 32.2972 67.0103C33.3859 63.8012 36.4248 61.4855 39.9957 61.4855C43.5666 61.4855 46.6056 63.8012 47.6942 67.0103Z" fill="#1F473E"/>
</svg>
