<svg width="80" height="80" viewBox="0 0 80 80" fill="none" xmlns="http://www.w3.org/2000/svg">
<g clip-path="url(#clip0_116_841)">
<path d="M25.9337 63.7171C27.5431 64.9495 29.4697 65.5978 31.5022 65.5978C35.3371 65.5978 38.6294 63.2297 39.9997 59.8822C41.37 63.2297 44.6623 65.5978 48.4972 65.5978C50.5296 65.5978 52.4563 64.9449 54.0657 63.7171C54.3645 63.4872 54.4197 63.0596 54.1944 62.7607C53.9645 62.4618 53.5369 62.4066 53.238 62.6319C51.8677 63.6803 50.2261 64.2321 48.4972 64.2321C44.2852 64.2321 40.8504 60.88 40.694 56.7048C41.278 56.176 42.8276 54.7276 44.6025 52.7733C44.7221 52.64 44.7864 52.4607 44.7772 52.2813C44.768 52.102 44.6853 51.9319 44.5519 51.8077C42.2758 49.7615 40.2572 49.7063 39.9951 49.7155C39.733 49.7155 37.7144 49.7615 35.4382 51.8077C35.3049 51.9273 35.2221 52.0974 35.2129 52.2813C35.2037 52.4607 35.2681 52.64 35.3877 52.7733C37.1626 54.7276 38.7122 56.1714 39.2962 56.7048C39.1398 60.88 35.7049 64.2321 31.493 64.2321C29.764 64.2321 28.1225 63.6803 26.7522 62.6319C26.4533 62.402 26.0257 62.4618 25.8003 62.7607C25.5704 63.0596 25.6302 63.4872 25.9291 63.7171H25.9337ZM36.8821 52.3871C38.588 51.0766 39.9261 51.0858 39.9721 51.0858C39.9859 51.0858 40.0043 51.0858 40.0181 51.0858C40.0778 51.0858 41.4113 51.0766 43.1173 52.3871C41.7838 53.8171 40.6112 54.9345 39.9997 55.5001C39.3881 54.9345 38.2202 53.8217 36.8821 52.3871Z" fill="#1F473E"/>
<path d="M25.4877 46.7406C26.228 47.0579 27.0051 47.1866 27.7822 47.1866C30.7481 47.1866 33.6358 45.3243 33.7875 45.2232C34.0174 45.076 34.1324 44.8047 34.0864 44.5334C34.045 44.3081 33.0656 38.9926 29.4974 37.4522C25.9337 35.9118 21.3907 38.8454 21.1975 38.9696C20.9676 39.1167 20.8527 39.388 20.8987 39.6593C20.94 39.8846 21.9195 45.2002 25.4877 46.736V46.7406ZM28.9548 38.7075C31.3137 39.7283 32.3391 43.0942 32.6425 44.3219C31.5436 44.9473 28.3892 46.5107 26.0257 45.4899C23.6622 44.4691 22.6414 41.0986 22.3379 39.8754C23.4369 39.2501 26.5867 37.6867 28.9548 38.7075Z" fill="#1F473E"/>
<path d="M59.1059 39.664C59.1519 39.3973 59.0369 39.126 58.807 38.9742C58.6139 38.8501 54.0755 35.9164 50.5072 37.4568C46.9436 38.9972 45.9596 44.3128 45.9182 44.5381C45.8722 44.8048 45.9872 45.0761 46.2171 45.2278C46.3688 45.329 49.2565 47.1913 52.2224 47.1913C52.9949 47.1913 53.7766 47.0625 54.5169 46.7452C58.0851 45.2048 59.0645 39.8939 59.1059 39.6686V39.664ZM47.3574 44.322C47.6563 43.0942 48.6771 39.7283 51.0452 38.7075C53.4041 37.6867 56.5631 39.2547 57.6621 39.8755C57.3632 41.1032 56.3424 44.4691 53.9743 45.4899C51.6108 46.5107 48.4564 44.9427 47.3574 44.322Z" fill="#1F473E"/>
<path d="M27.493 43.5263C27.8701 43.5263 28.1736 43.2228 28.1736 42.8458V41.0939C28.1736 40.7168 27.8701 40.4133 27.493 40.4133C27.116 40.4133 26.8125 40.7168 26.8125 41.0939V42.8458C26.8125 43.2228 27.116 43.5263 27.493 43.5263Z" fill="#1F473E"/>
<path d="M52.5126 40.5422C52.1355 40.5422 51.832 40.8457 51.832 41.2228V42.9747C51.832 43.3518 52.1355 43.6552 52.5126 43.6552C52.8896 43.6552 53.1931 43.3518 53.1931 42.9747V41.2228C53.1931 40.8457 52.8896 40.5422 52.5126 40.5422Z" fill="#1F473E"/>
<path d="M20.4767 58.3694C20.256 58.0659 19.8284 58.0015 19.5249 58.2269L6.13943 68.0717C5.83595 68.2924 5.77157 68.72 5.99229 69.0235C6.12563 69.2028 6.33255 69.2994 6.53948 69.2994C6.67742 69.2994 6.81997 69.258 6.94412 69.166L20.3296 59.3212C20.633 59.1005 20.6974 58.6729 20.4767 58.3694Z" fill="#1F473E"/>
<path d="M18.6003 53.8585C18.5175 53.4907 18.1542 53.2608 17.7864 53.3435L0.533816 57.2244C0.165958 57.3072 -0.0639537 57.6705 0.0188144 58.0383C0.0877879 58.3556 0.372878 58.5717 0.68096 58.5717C0.73154 58.5717 0.782121 58.5671 0.832701 58.5533L18.0853 54.6724C18.4531 54.5896 18.683 54.2264 18.6003 53.8585Z" fill="#1F473E"/>
<path d="M73.8628 68.0718L60.4773 58.227C60.1738 58.0017 59.7508 58.0706 59.5255 58.3695C59.3048 58.673 59.3692 59.1007 59.6726 59.3214L73.0581 69.1662C73.1776 69.2535 73.3202 69.2995 73.4627 69.2995C73.6696 69.2995 73.8766 69.203 74.0099 69.0236C74.2306 68.7201 74.1663 68.2925 73.8628 68.0718Z" fill="#1F473E"/>
<path d="M79.472 57.2244L62.2194 53.3435C61.8562 53.2608 61.4883 53.4907 61.4055 53.8585C61.3228 54.2264 61.5527 54.5896 61.9205 54.6724L79.1731 58.5533C79.2237 58.5625 79.2743 58.5717 79.3248 58.5717C79.6375 58.5717 79.918 58.3556 79.987 58.0383C80.0697 57.6705 79.8398 57.3072 79.472 57.2244Z" fill="#1F473E"/>
<path d="M10.8011 13.9597C11.6012 13.362 12.9715 13.3803 14.5579 14.0103C17.7767 15.2886 21.1885 19.1373 21.2207 19.1787C21.469 19.4592 21.9013 19.4868 22.1818 19.2385C22.4623 18.9902 22.4898 18.5626 22.2415 18.2775C22.0944 18.1073 18.5813 14.1437 15.0591 12.7458C12.9945 11.9227 11.192 11.9687 9.98725 12.8699C9.19636 13.4631 8.3043 14.7138 8.54341 17.3348C8.94806 21.7997 11.2288 26.4807 11.3253 26.6784C11.4449 26.9175 11.684 27.0601 11.9369 27.0601C12.0381 27.0601 12.1392 27.0371 12.2358 26.9911C12.5715 26.8256 12.714 26.4163 12.5485 26.0807C12.5255 26.0347 10.2861 21.4318 9.89989 17.2153C9.79873 16.1163 9.8769 14.6587 10.8057 13.9643L10.8011 13.9597Z" fill="#1F473E"/>
<path d="M67.4566 26.0808C67.291 26.4165 67.429 26.8257 67.7693 26.9913C67.8658 27.0372 67.967 27.0602 68.0681 27.0602C68.321 27.0602 68.5602 26.9223 68.6797 26.6786C68.7763 26.4809 71.057 21.8045 71.4616 17.335C71.7007 14.714 70.8087 13.4587 70.0178 12.8701C68.8131 11.9688 67.0106 11.9275 64.9459 12.7459C61.4237 14.1484 57.9107 18.1121 57.7635 18.2776C57.5152 18.5581 57.5428 18.9903 57.8233 19.2386C58.1038 19.4869 58.536 19.4594 58.7843 19.1789C58.8165 19.1421 62.2284 15.2888 65.4472 14.0105C67.0335 13.3805 68.4038 13.3621 69.2039 13.9599C70.1327 14.6542 70.2063 16.1118 70.1098 17.2108C69.7281 21.4228 67.4842 26.0302 67.4612 26.0762L67.4566 26.0808Z" fill="#1F473E"/>
<path d="M64.8548 66.9359C58.1551 72.7618 49.3311 75.9668 40.0013 75.9668C30.6715 75.9668 21.8475 72.7572 15.1479 66.9359C14.8628 66.6876 14.4352 66.7198 14.1869 67.0049C13.9386 67.29 13.9707 67.7176 14.2558 67.9659C21.2038 74.008 30.345 77.3325 40.0013 77.3325C49.6576 77.3325 58.7989 74.008 65.7468 67.9659C66.0319 67.7176 66.0595 67.29 65.8158 67.0049C65.5675 66.7198 65.1398 66.6922 64.8548 66.9359Z" fill="#1F473E"/>
<path d="M4.12372 53.1734C4.22948 53.5366 4.60653 53.7435 4.9652 53.6378C5.32846 53.532 5.53538 53.155 5.42962 52.7963C4.7031 50.2857 4.31685 47.6233 4.31685 45.0989C4.31685 40.3719 5.51239 35.8334 7.87588 31.6077C7.97704 31.4283 7.99083 31.2122 7.91266 31.0237C6.79529 28.2096 4.20189 20.4891 4.31685 9.55914C4.33984 7.73365 4.75368 6.49212 5.54457 5.87596C6.67114 4.9977 8.50124 5.43913 9.70597 5.73342C9.86691 5.7702 10.0141 5.80699 10.1474 5.83918C19.3209 7.89458 24.1398 13.1182 26.1952 16.0472C26.37 16.2956 26.6826 16.3967 26.9723 16.3001C31.0004 14.9391 35.502 14.2217 39.9945 14.2217C44.487 14.2217 48.9887 14.9391 53.0167 16.3001C53.3018 16.3967 53.6191 16.291 53.7938 16.0472C55.8492 13.1182 60.6682 7.88999 69.8416 5.83918C69.975 5.80699 70.1267 5.7748 70.2831 5.73342C71.4924 5.44373 73.3179 4.9977 74.4445 5.87596C75.2353 6.49212 75.6492 7.72905 75.6722 9.55455C75.7871 20.4891 73.1983 28.2096 72.0764 31.0191C72.0028 31.2076 72.0166 31.4237 72.1132 31.6031C74.4766 35.8242 75.6722 40.3627 75.6722 45.0943C75.6722 47.6187 75.2859 50.2811 74.5594 52.7917C74.4537 53.1504 74.6606 53.532 75.0238 53.6332C75.0882 53.6516 75.1526 53.6608 75.2124 53.6608C75.5067 53.6608 75.7779 53.4676 75.8653 53.1688C76.6286 50.5386 77.0333 47.7428 77.0333 45.0943C77.0333 40.2385 75.8285 35.5713 73.4558 31.2214C74.8905 27.5198 77.139 20.0201 77.0287 9.53615C77.0011 7.27382 76.4079 5.67824 75.2721 4.79538C73.626 3.51707 71.3269 4.07346 69.952 4.40453C69.8002 4.44131 69.6623 4.4735 69.5335 4.50569C60.3279 6.57029 55.2836 11.7019 52.9661 14.8517C48.9243 13.5504 44.4456 12.8607 39.9853 12.8607C35.525 12.8607 31.0464 13.5458 27.0045 14.8517C24.7008 11.7065 19.6611 6.57029 10.4509 4.51029C10.3221 4.4827 10.1796 4.44591 10.0324 4.40913C8.65758 4.07805 6.35846 3.52167 4.71229 4.79998C3.57653 5.68284 2.98336 7.27842 2.95577 9.54075C2.84541 20.0201 5.09395 27.5198 6.52859 31.226C4.15591 35.5759 2.95117 40.2385 2.95117 45.0989C2.95117 47.7474 3.35582 50.5432 4.11912 53.1734H4.12372Z" fill="#1F473E"/>
</g>
<defs>
<clipPath id="clip0_116_841">
<rect width="80" height="80" fill="white"/>
</clipPath>
</defs>
</svg>
