<svg width="80" height="80" viewBox="0 0 80 80" fill="none" xmlns="http://www.w3.org/2000/svg">
<path d="M58.6204 53.2666H21.1493C20.7167 53.2666 20.3691 53.6176 20.3691 54.0467V60.1814C20.3691 60.614 20.7202 60.9615 21.1493 60.9615H58.6204C59.053 60.9615 59.4006 60.6105 59.4006 60.1814V54.0467C59.4006 53.6141 59.0495 53.2666 58.6204 53.2666ZM57.8403 59.4048H21.9294V54.8304H57.8403V59.4048Z" fill="#1F473E"/>
<path d="M58.6202 26.6389H35.7411C35.3085 26.6389 34.9609 26.99 34.9609 27.4191V40.8019C34.9609 41.2345 35.312 41.582 35.7411 41.582H58.6202C59.0528 41.582 59.4003 41.231 59.4003 40.8019V27.4191C59.4003 26.9865 59.0493 26.6389 58.6202 26.6389ZM57.8401 40.0182H36.5247V28.1992H45.0246L42.1311 32.1779C41.8757 32.5254 41.9538 33.0147 42.3048 33.2701C42.4431 33.3694 42.6027 33.419 42.7623 33.419C43.0034 33.419 43.241 33.3091 43.3935 33.0963L46.9572 28.1992H50.9856L45.4963 35.7452C45.241 36.0927 45.319 36.5821 45.67 36.8374C45.8083 36.9367 45.9679 36.9863 46.1275 36.9863C46.3686 36.9863 46.6062 36.8764 46.7587 36.6636L52.9182 28.1992H57.8436V40.0182H57.8401Z" fill="#1F473E"/>
<path d="M27.1137 27.7061H21.1493C20.7167 27.7061 20.3691 28.0571 20.3691 28.4862C20.3691 28.9153 20.7202 29.2663 21.1493 29.2663H27.1137C27.5464 29.2663 27.8939 28.9153 27.8939 28.4862C27.8939 28.0571 27.5428 27.7061 27.1137 27.7061Z" fill="#1F473E"/>
<path d="M27.1137 33.3269H21.1493C20.7167 33.3269 20.3691 33.678 20.3691 34.1071C20.3691 34.5361 20.7202 34.8872 21.1493 34.8872H27.1137C27.5464 34.8872 27.8939 34.5361 27.8939 34.1071C27.8939 33.678 27.5428 33.3269 27.1137 33.3269Z" fill="#1F473E"/>
<path d="M27.1137 38.9507H21.1493C20.7167 38.9507 20.3691 39.3017 20.3691 39.7308C20.3691 40.1599 20.7202 40.5109 21.1493 40.5109H27.1137C27.5464 40.5109 27.8939 40.1599 27.8939 39.7308C27.8939 39.3017 27.5428 38.9507 27.1137 38.9507Z" fill="#1F473E"/>
<path d="M60.4958 11H19.2765C14.7127 11 11 14.7127 11 19.2765V62.9958C11 65.322 12.89 67.2121 15.2163 67.2121H16.7552L17.4645 68.3929C17.6063 68.6269 17.8581 68.7723 18.1347 68.7723H21.2304C21.5034 68.7723 21.7587 68.6269 21.9006 68.3929L22.6098 67.2121H57.1625L57.8717 68.3929C58.0136 68.6269 58.2654 68.7723 58.5419 68.7723H61.6377C61.9107 68.7723 62.166 68.6269 62.3079 68.3929L63.0171 67.2121H64.5561C66.8823 67.2121 68.7723 65.322 68.7723 62.9958V19.2765C68.7723 14.7127 65.0596 11 60.4958 11ZM12.5603 21.4573H67.2085V46.7619H12.5603V21.4573ZM19.2729 12.5638H60.4923C64.1944 12.5638 67.205 15.5744 67.205 19.2765V19.8935H12.5567V19.2765C12.5567 15.5744 15.5673 12.5638 19.2694 12.5638H19.2729ZM64.5525 65.6482H62.5703C62.2972 65.6482 62.0419 65.7936 61.9001 66.0277L61.1908 67.2085H58.9781L58.2689 66.0277C58.1271 65.7936 57.8753 65.6482 57.5987 65.6482H22.163C21.8899 65.6482 21.6346 65.7936 21.4928 66.0277L20.7836 67.2085H18.5708L17.8616 66.0277C17.7198 65.7936 17.468 65.6482 17.1914 65.6482H15.2092C13.7446 65.6482 12.5532 64.4568 12.5532 62.9922V48.3187H67.2014V62.9922C67.2014 64.4568 66.0099 65.6482 64.5454 65.6482H64.5525Z" fill="#1F473E"/>
</svg>
