<svg width="80" height="80" viewBox="0 0 80 80" fill="none" xmlns="http://www.w3.org/2000/svg">
<path d="M49.7047 64.2043H29.9071C29.4744 64.2043 29.127 64.5554 29.127 64.9845C29.127 65.4135 29.478 65.7646 29.9071 65.7646H49.7047C50.1373 65.7646 50.4848 65.4135 50.4848 64.9845C50.4848 64.5554 50.1337 64.2043 49.7047 64.2043Z" fill="#1F473E"/>
<path d="M72.6162 48.46C72.6162 45.5239 70.2261 43.1338 67.29 43.1338H65.7971V40.953C65.8219 40.5877 65.9212 38.2545 64.2298 36.329C62.9106 34.829 60.8929 33.9886 58.2227 33.8325C54.7405 28.2085 52.0065 28.2085 39.8081 28.2085C27.6097 28.2085 24.8721 28.2085 21.3934 33.8325C18.7268 33.9886 16.7056 34.8254 15.3864 36.329C13.695 38.2545 13.7907 40.5877 13.8191 40.953V43.1338H12.3262C9.39005 43.1338 7 45.5239 7 48.46C7 50.3571 7.75884 51.6266 8.49287 52.8536C9.2801 54.1692 10.0212 55.4138 9.9574 57.5733V68.2789C9.9574 70.3392 11.6347 72.0129 13.695 72.0129H65.9318C67.9921 72.0129 69.6658 70.3392 69.6658 68.2789V57.5521C69.602 55.4174 70.3431 54.1727 71.1304 52.8571C71.8644 51.6302 72.6232 50.3607 72.6232 48.4636L72.6162 48.46ZM16.5601 37.3608C17.6523 36.1197 19.436 35.4531 21.8686 35.3786C22.1345 35.3715 22.3792 35.2261 22.514 34.9992C25.6487 29.7723 27.5352 29.7723 39.8116 29.7723C52.0881 29.7723 53.971 29.7723 57.1093 34.9992C57.2476 35.2261 57.4887 35.368 57.7547 35.3786C60.1731 35.4531 61.9567 36.1162 63.0489 37.3467C64.407 38.8786 64.2475 40.8325 64.2475 40.8466C64.2475 40.8715 64.2439 40.8963 64.2439 40.9246V43.1941C61.3007 43.5771 59.017 46.0984 59.017 49.1444V51.0309C53.7121 48.8749 46.9499 47.694 39.8152 47.694C32.6805 47.694 25.9147 48.8749 20.6133 51.0309V49.1444C20.6133 46.0984 18.3296 43.5771 15.3864 43.1941V40.9246C15.3864 40.8998 15.3864 40.875 15.3829 40.8466C15.3829 40.8289 15.2091 38.9069 16.5672 37.3608H16.5601ZM20.6062 52.7188C25.8047 50.4813 32.599 49.2543 39.8081 49.2543C47.0172 49.2543 53.8115 50.4813 59.01 52.7188V57.9634H20.6027V52.7188H20.6062ZM11.5177 68.2754V57.5946C11.5957 55.0025 10.6595 53.4351 9.83329 52.0486C9.15245 50.9068 8.56382 49.921 8.56382 48.4565C8.56382 46.382 10.2517 44.6905 12.3297 44.6905H14.6027C17.053 44.6905 19.0495 46.6834 19.0495 49.1373V70.4491H13.695C12.4964 70.4491 11.5212 69.4739 11.5212 68.2754H11.5177ZM20.6062 59.5237H59.0135V70.4455H20.6062V59.5237ZM69.7864 52.0522C68.9602 53.4351 68.024 55.006 68.102 57.5733V68.2789C68.102 69.4775 67.1269 70.4526 65.9283 70.4526H60.5738V49.1409C60.5738 46.6905 62.5667 44.6941 65.0205 44.6941H67.2936C69.368 44.6941 71.0559 46.382 71.0559 48.46C71.0559 49.9245 70.4672 50.9103 69.7864 52.0522Z" fill="#1F473E"/>
<path d="M27.0782 45.2333C27.5108 45.2333 27.8583 44.8822 27.8583 44.4532V41.2972C27.8583 38.7263 29.9505 36.6341 32.5214 36.6341H47.0921C49.663 36.6341 51.7552 38.7263 51.7552 41.2972V44.4532C51.7552 44.8858 52.1063 45.2333 52.5354 45.2333C52.9644 45.2333 53.3155 44.8822 53.3155 44.4532V41.2972C53.3155 37.8646 50.5212 35.0703 47.0886 35.0703H32.5179C29.0853 35.0703 26.291 37.8646 26.291 41.2972V44.4532C26.291 44.8858 26.6421 45.2333 27.0711 45.2333H27.0782Z" fill="#1F473E"/>
<path d="M11.8621 16.5208H13.4295V18.0881C13.4295 18.5207 13.7806 18.8683 14.2096 18.8683C14.6387 18.8683 14.9898 18.5172 14.9898 18.0881V16.5208H16.5571C16.9897 16.5208 17.3373 16.1697 17.3373 15.7406C17.3373 15.3116 16.9862 14.9605 16.5571 14.9605H14.9898V13.3932C14.9898 12.9605 14.6387 12.613 14.2096 12.613C13.7806 12.613 13.4295 12.9641 13.4295 13.3932V14.9605H11.8621C11.4295 14.9605 11.082 15.3116 11.082 15.7406C11.082 16.1697 11.4331 16.5208 11.8621 16.5208Z" fill="#1F473E"/>
<path d="M63.1473 11.9075H64.7147V13.4748C64.7147 13.9075 65.0657 14.255 65.4948 14.255C65.9239 14.255 66.2749 13.9039 66.2749 13.4748V11.9075H67.8423C68.2749 11.9075 68.6224 11.5564 68.6224 11.1274C68.6224 10.6983 68.2713 10.3472 67.8423 10.3472H66.2749V8.77987C66.2749 8.34725 65.9239 7.99976 65.4948 7.99976C65.0657 7.99976 64.7147 8.3508 64.7147 8.77987V10.3472H63.1473C62.7147 10.3472 62.3672 10.6983 62.3672 11.1274C62.3672 11.5564 62.7182 11.9075 63.1473 11.9075Z" fill="#1F473E"/>
<path d="M31.5595 11.9072H32.258V12.6057C32.258 13.0383 32.6091 13.3858 33.0381 13.3858C33.4672 13.3858 33.8183 13.0348 33.8183 12.6057V11.9072H34.5169C34.9495 11.9072 35.297 11.5561 35.297 11.127C35.297 10.6979 34.9459 10.3469 34.5169 10.3469H33.8183V9.64832C33.8183 9.2157 33.4672 8.86816 33.0381 8.86816C32.6091 8.86816 32.258 9.21925 32.258 9.64832V10.3469H31.5595C31.1268 10.3469 30.7793 10.6979 30.7793 11.127C30.7793 11.5561 31.1304 11.9072 31.5595 11.9072Z" fill="#1F473E"/>
<path d="M53.8973 19.1591H54.5959V19.8576C54.5959 20.2902 54.9469 20.6378 55.376 20.6378C55.8051 20.6378 56.1561 20.2867 56.1561 19.8576V19.1591H56.8547C57.2873 19.1591 57.6349 18.808 57.6349 18.379C57.6349 17.9499 57.2838 17.5988 56.8547 17.5988H56.1561V16.9002C56.1561 16.4676 55.8051 16.1201 55.376 16.1201C54.9469 16.1201 54.5959 16.4712 54.5959 16.9002V17.5988H53.8973C53.4647 17.5988 53.1172 17.9499 53.1172 18.379C53.1172 18.808 53.4682 19.1591 53.8973 19.1591Z" fill="#1F473E"/>
<path d="M24.33 23.6051C25.1066 23.6051 25.7342 22.9739 25.7342 22.2009C25.7342 21.4278 25.103 20.7966 24.33 20.7966C23.557 20.7966 22.9258 21.4278 22.9258 22.2009C22.9258 22.9739 23.557 23.6051 24.33 23.6051Z" fill="#1F473E"/>
<path d="M42.8652 19.7833C43.6418 19.7833 44.2694 19.1522 44.2694 18.3791C44.2694 17.6061 43.6382 16.9749 42.8652 16.9749C42.0922 16.9749 41.4609 17.6061 41.4609 18.3791C41.4609 19.1522 42.0922 19.7833 42.8652 19.7833Z" fill="#1F473E"/>
<path d="M65.1738 24.4744C64.3972 24.4744 63.7695 25.1056 63.7695 25.8786C63.7695 26.6517 64.4008 27.2829 65.1738 27.2829C65.9468 27.2829 66.578 26.6517 66.578 25.8786C66.578 25.1056 65.9468 24.4744 65.1738 24.4744Z" fill="#1F473E"/>
</svg>
