<svg width="80" height="80" viewBox="0 0 80 80" fill="none" xmlns="http://www.w3.org/2000/svg">
<path d="M19.7407 35.082H7.3151V20.8871C7.3151 20.3976 6.91792 20.0044 6.43245 20.0044C5.94699 20.0044 5.5498 20.4016 5.5498 20.8871C5.5498 20.8871 5.5498 36.0008 5.5498 36.0168C5.60196 39.4272 8.29407 41.7983 12.1337 41.7983H24.5593V53.1687C24.5593 55.8247 22.3968 57.9873 19.7407 57.9873H6.43245C5.94297 57.9873 5.5498 58.3845 5.5498 58.8699C5.5498 59.3554 5.94699 59.7526 6.43245 59.7526H19.7407C23.3717 59.7526 26.3246 56.7997 26.3246 53.1647C26.3246 53.1647 26.3246 40.8795 26.3246 40.8635C26.2724 37.4532 23.5803 35.082 19.7407 35.082ZM7.41541 36.8473H19.7407C21.8591 36.8473 23.9896 37.8383 24.463 40.029H12.1377C10.0193 40.029 7.88884 39.038 7.41541 36.8473Z" fill="#1F473E"/>
<path d="M74.4457 20.8827C74.4457 20.3932 74.0485 20 73.563 20C73.0776 20 72.6804 20.3972 72.6804 20.8827V35.0776H60.2548C56.4152 35.0776 53.7231 37.4488 53.6709 40.8591C53.6709 40.8751 53.6709 53.1603 53.6709 53.1603C53.6709 56.7913 56.6238 59.7482 60.2548 59.7482H73.563C74.0525 59.7482 74.4457 59.351 74.4457 58.8656C74.4457 58.3801 74.0485 57.9829 73.563 57.9829H60.2548C57.5988 57.9829 55.4362 55.8204 55.4362 53.1643V41.7939H67.8618C71.7014 41.7939 74.3936 39.4228 74.4457 36.0124C74.4457 35.9964 74.4498 20.8827 74.4498 20.8827H74.4457ZM67.8578 40.0286H55.5325C56.006 37.842 58.1364 36.847 60.2548 36.847H72.5801C72.1067 39.0336 69.9762 40.0286 67.8578 40.0286Z" fill="#1F473E"/>
<path d="M48.223 57.984C45.5389 57.984 43.3563 55.8215 43.3563 53.1655V29.0124H57.1259C59.1721 29.0124 60.8371 27.3474 60.8371 25.3012C60.8371 23.255 59.1721 21.59 57.1259 21.59H22.8743C20.8281 21.59 19.1631 23.255 19.1631 25.3012C19.1631 27.3474 20.8281 29.0124 22.8743 29.0124H36.644V53.1655C36.644 55.8215 34.4614 57.984 31.7773 57.984C31.2878 57.984 30.8946 58.3812 30.8946 58.8667C30.8946 59.3522 31.2918 59.7494 31.7773 59.7494H48.227C48.7165 59.7494 49.1097 59.3522 49.1097 58.8667C49.1097 58.3812 48.7125 57.984 48.227 57.984H48.223ZM20.9284 25.3012C20.9284 24.23 21.7991 23.3593 22.8703 23.3593H57.1219C58.1931 23.3593 59.0638 24.23 59.0638 25.3012C59.0638 26.3724 58.1931 27.2431 57.1219 27.2431H22.8703C21.7991 27.2431 20.9284 26.3724 20.9284 25.3012ZM36.2909 57.984C37.5909 56.7804 38.4093 55.0632 38.4093 53.1655V29.0124H41.5909V53.1655C41.5909 55.0672 42.4054 56.7804 43.7094 57.984H36.2949H36.2909Z" fill="#1F473E"/>
</svg>
