<svg width="80" height="80" viewBox="0 0 80 80" fill="none" xmlns="http://www.w3.org/2000/svg">
<path d="M69.6654 14.0056C69.2328 14.0056 68.8853 14.3567 68.8853 14.7857V42.1825H65.513V39.9627C65.513 37.6365 63.6229 35.7464 61.2967 35.7464H18.7015C16.3753 35.7464 14.4853 37.6365 14.4853 39.9627V42.1825H11.113V14.7857C11.113 14.3531 10.7619 14.0056 10.3328 14.0056C9.90378 14.0056 9.55273 14.3567 9.55273 14.7857V42.9627C9.55273 43.3953 9.90378 43.7428 10.3328 43.7428H14.4853V66.2319C14.4853 68.5581 16.3753 70.4481 18.7015 70.4481H61.2967C63.6229 70.4481 65.513 68.5581 65.513 66.2319V43.7428H69.6654C70.098 43.7428 70.4456 43.3917 70.4456 42.9627V14.7857C70.4456 14.3531 70.0945 14.0056 69.6654 14.0056ZM63.9527 66.2319C63.9527 67.6964 62.7612 68.8879 61.2967 68.8879H18.7015C17.237 68.8879 16.0455 67.6964 16.0455 66.2319V39.9627C16.0455 38.4982 17.237 37.3067 18.7015 37.3067H61.2967C62.7612 37.3067 63.9527 38.4982 63.9527 39.9627V66.2319Z" fill="#1F473E"/>
<path d="M23.6468 17.877C23.8454 17.877 24.0475 17.799 24.2 17.6465C28.4127 13.4338 34.0226 11.1147 39.9977 11.1112C45.9728 11.1112 51.5826 13.4303 55.7953 17.643C56.1003 17.9479 56.5931 17.9479 56.8981 17.643C57.2031 17.338 57.2031 16.8451 56.8981 16.5402C52.3911 12.0331 46.3876 9.5509 39.9941 9.5509C33.6006 9.5509 27.6006 12.0331 23.09 16.5402C22.7851 16.8451 22.7851 17.338 23.09 17.643C23.2425 17.7955 23.4411 17.8735 23.6433 17.8735L23.6468 17.877Z" fill="#1F473E"/>
<path d="M51.9336 22.2925C52.1322 22.2925 52.3343 22.2144 52.4868 22.062C52.7918 21.757 52.7918 21.2641 52.4868 20.9591C45.6004 14.0727 34.3984 14.0727 27.5119 20.9591C27.207 21.2641 27.207 21.757 27.5119 22.062C27.8169 22.3669 28.3098 22.3669 28.6148 22.062C34.8913 15.7854 45.1039 15.7854 51.3804 22.062C51.5329 22.2144 51.7315 22.2925 51.9336 22.2925Z" fill="#1F473E"/>
<path d="M48.0696 26.4802C48.3745 26.1753 48.3745 25.6824 48.0696 25.3774C43.6193 20.9271 36.3782 20.9271 31.9279 25.3774C31.623 25.6824 31.623 26.1753 31.9279 26.4802C32.0804 26.6327 32.279 26.7107 32.4811 26.7107C32.6832 26.7107 32.8818 26.6327 33.0343 26.4802C36.8747 22.6398 43.1264 22.6398 46.9668 26.4802C47.2717 26.7852 47.7646 26.7852 48.0696 26.4802Z" fill="#1F473E"/>
<path d="M36.3459 29.792C36.0409 30.0969 36.0409 30.5899 36.3459 30.8948C36.6509 31.1998 37.1438 31.1998 37.4487 30.8948C38.1296 30.214 39.0374 29.8381 39.9984 29.8381C40.9593 29.8381 41.8671 30.214 42.548 30.8948C42.7004 31.0473 42.899 31.1253 43.1012 31.1253C43.3033 31.1253 43.5018 31.0473 43.6543 30.8948C43.9593 30.5899 43.9593 30.0969 43.6543 29.792C42.6792 28.8168 41.3813 28.2778 39.9984 28.2778C38.6154 28.2778 37.3211 28.8168 36.3424 29.792H36.3459Z" fill="#1F473E"/>
<path d="M52.2748 43.4545H27.7255C27.2929 43.4545 26.9453 43.8056 26.9453 44.2346V50.1423C26.9453 50.5749 27.2964 50.9225 27.7255 50.9225H52.2748C52.7074 50.9225 53.0549 50.5714 53.0549 50.1423V44.2346C53.0549 43.802 52.7039 43.4545 52.2748 43.4545ZM51.4946 49.3622H28.5056V45.0183H51.4946V49.3622Z" fill="#1F473E"/>
<path d="M33.0273 56.0935C32.2507 56.0935 31.623 56.7247 31.623 57.4977C31.623 58.2708 32.2542 58.902 33.0273 58.902C33.8003 58.902 34.4315 58.2708 34.4315 57.4977C34.4315 56.7247 33.8003 56.0935 33.0273 56.0935Z" fill="#1F473E"/>
<path d="M39.998 56.0935C39.2214 56.0935 38.5938 56.7247 38.5938 57.4977C38.5938 58.2708 39.225 58.902 39.998 58.902C40.7711 58.902 41.4022 58.2708 41.4022 57.4977C41.4022 56.7247 40.7711 56.0935 39.998 56.0935Z" fill="#1F473E"/>
<path d="M46.9706 56.0935C46.194 56.0935 45.5664 56.7247 45.5664 57.4977C45.5664 58.2708 46.1976 58.902 46.9706 58.902C47.7437 58.902 48.3749 58.2708 48.3749 57.4977C48.3749 56.7247 47.7437 56.0935 46.9706 56.0935Z" fill="#1F473E"/>
</svg>
